# xmcd
#
# Track frame offsets: 
#        150
#        19811
#        37954
#        56079
#        70004
#        80299
#        104821
#        119831
#        132891
#        149946
#        167349
#        180221
#
# Disc length: 2566 seconds
#
# Revision: 0
# Processed by: cddbd v1.5.2PL0 Copyright (c) Steve Scherf et al.
# Submitted via: ExactAudioCopy v1.3
#
DISCID=a80a040c
DTITLE=The Nighthawks - Trouble 
DYEAR=1991
DGENRE=Blues
TTITLE0=Blind Love
TTITLE1=99 Pounds
TTITLE2=T.R.O.U.B.L.E.
TTITLE3=Hard Hearted Woman
TTITLE4=Why Why Baby
TTITLE5=I Would't Treat A Dog (The Way You Treated Me)
TTITLE6=One Rock At A Time
TTITLE7=Leave My Woman Alone
TTITLE8=The Chicken And The Hawk (Up, Up, And Away)
TTITLE9=Most Likely You Go Your Way (And I'll Go Mine)
TTITLE10=Ride And Roll
TTITLE11=Tryin' To Get To You
EXTD=
EXTT0=
EXTT1=
EXTT2=
EXTT3=
EXTT4=
EXTT5=
EXTT6=
EXTT7=
EXTT8=
EXTT9=
EXTT10=
EXTT11=
PLAYORDER=
